# MagicaVoxel @ Ephtracy

# group
o 

# material
mtllib torch.mtl
usemtl palette

# normals
vn -1 0 0
vn 1 0 0
vn 0 0 1
vn 0 0 -1
vn 0 -1 0
vn 0 1 0

# texcoords
vt 0.537109 0.5
vt 0.978516 0.5

# verts
v -0.5 1.8 0.1
v -0.5 1.8 -0.1
v -0.5 2.1 0.2
v -0.5 2.1 0.1
v -0.5 2.1 -0.1
v -0.5 2.1 -0.2
v -0.5 2.2 0.2
v -0.5 2.2 0.1
v -0.5 2.2 -0.1
v -0.5 2.2 -0.2
v -0.3 2.1 0.1
v -0.3 2.1 -0.1
v -0.3 2.2 0.1
v -0.3 2.2 -0.1
v -0.4 1.8 0.1
v -0.4 1.8 -0.1
v -0.4 2 0.1
v -0.4 2 -0.1
v -0.3 2 0.1
v -0.3 2 -0.1
v -0.3 2.1 0.2
v -0.3 2.1 0.1
v -0.3 2.1 -0.1
v -0.3 2.1 -0.2
v -0.3 2.2 0.2
v -0.3 2.2 0.1
v -0.3 2.2 -0.1
v -0.3 2.2 -0.2
v -0.2 2.1 0.1
v -0.2 2.1 -0.1
v -0.2 2.2 0.1
v -0.2 2.2 -0.1
v -0.5 2.1 0.2
v -0.5 2.2 0.2
v -0.3 2.1 0.2
v -0.3 2.2 0.2
v -0.5 1.8 0.1
v -0.5 2.1 0.1
v -0.4 1.8 0.1
v -0.4 2 0.1
v -0.3 2 0.1
v -0.3 2.1 0.1
v -0.3 2.2 0.1
v -0.2 2.1 0.1
v -0.2 2.2 0.1
v -0.5 2.1 -0.1
v -0.5 2.2 -0.1
v -0.3 2.1 -0.1
v -0.3 2.2 -0.1
v -0.5 2.1 0.1
v -0.5 2.2 0.1
v -0.3 2.1 0.1
v -0.3 2.2 0.1
v -0.5 1.8 -0.1
v -0.5 2.1 -0.1
v -0.4 1.8 -0.1
v -0.4 2 -0.1
v -0.3 2 -0.1
v -0.3 2.1 -0.1
v -0.3 2.2 -0.1
v -0.2 2.1 -0.1
v -0.2 2.2 -0.1
v -0.5 2.1 -0.2
v -0.5 2.2 -0.2
v -0.3 2.1 -0.2
v -0.3 2.2 -0.2
v -0.5 1.8 0.1
v -0.4 1.8 0.1
v -0.5 1.8 -0.1
v -0.4 1.8 -0.1
v -0.4 2 0.1
v -0.3 2 0.1
v -0.4 2 -0.1
v -0.3 2 -0.1
v -0.5 2.1 0.2
v -0.3 2.1 0.2
v -0.5 2.1 0.1
v -0.3 2.1 0.1
v -0.2 2.1 0.1
v -0.5 2.1 -0.1
v -0.3 2.1 -0.1
v -0.2 2.1 -0.1
v -0.5 2.1 -0.2
v -0.3 2.1 -0.2
v -0.5 2.1 0.1
v -0.3 2.1 0.1
v -0.5 2.1 -0.1
v -0.3 2.1 -0.1
v -0.5 2.2 0.2
v -0.3 2.2 0.2
v -0.5 2.2 0.1
v -0.3 2.2 0.1
v -0.2 2.2 0.1
v -0.5 2.2 -0.1
v -0.3 2.2 -0.1
v -0.2 2.2 -0.1
v -0.5 2.2 -0.2
v -0.3 2.2 -0.2

# faces
f 4/1/1 2/1/1 1/1/1
f 5/1/1 2/1/1 4/1/1
f 7/2/1 4/2/1 3/2/1
f 8/2/1 4/2/1 7/2/1
f 9/2/1 6/2/1 5/2/1
f 10/2/1 6/2/1 9/2/1
f 13/2/1 12/2/1 11/2/1
f 14/2/1 12/2/1 13/2/1
f 15/1/2 16/1/2 17/1/2
f 17/1/2 16/1/2 18/1/2
f 19/1/2 20/1/2 22/1/2
f 22/1/2 20/1/2 23/1/2
f 21/2/2 22/2/2 25/2/2
f 25/2/2 22/2/2 26/2/2
f 23/2/2 24/2/2 27/2/2
f 27/2/2 24/2/2 28/2/2
f 29/2/2 30/2/2 31/2/2
f 31/2/2 30/2/2 32/2/2
f 35/2/3 34/2/3 33/2/3
f 36/2/3 34/2/3 35/2/3
f 39/1/3 38/1/3 37/1/3
f 40/1/3 38/1/3 39/1/3
f 41/1/3 38/1/3 40/1/3
f 42/1/3 38/1/3 41/1/3
f 44/2/3 43/2/3 42/2/3
f 45/2/3 43/2/3 44/2/3
f 48/2/3 47/2/3 46/2/3
f 49/2/3 47/2/3 48/2/3
f 50/2/4 51/2/4 52/2/4
f 52/2/4 51/2/4 53/2/4
f 54/1/4 55/1/4 56/1/4
f 56/1/4 55/1/4 57/1/4
f 57/1/4 55/1/4 58/1/4
f 58/1/4 55/1/4 59/1/4
f 59/2/4 60/2/4 61/2/4
f 61/2/4 60/2/4 62/2/4
f 63/2/4 64/2/4 65/2/4
f 65/2/4 64/2/4 66/2/4
f 69/1/5 68/1/5 67/1/5
f 70/1/5 68/1/5 69/1/5
f 73/1/5 72/1/5 71/1/5
f 74/1/5 72/1/5 73/1/5
f 77/2/5 76/2/5 75/2/5
f 78/2/5 76/2/5 77/2/5
f 81/2/5 79/2/5 78/2/5
f 82/2/5 79/2/5 81/2/5
f 83/2/5 81/2/5 80/2/5
f 84/2/5 81/2/5 83/2/5
f 85/1/6 86/1/6 87/1/6
f 87/1/6 86/1/6 88/1/6
f 89/2/6 90/2/6 91/2/6
f 91/2/6 90/2/6 92/2/6
f 92/2/6 93/2/6 95/2/6
f 95/2/6 93/2/6 96/2/6
f 94/2/6 95/2/6 97/2/6
f 97/2/6 95/2/6 98/2/6
